<?xml version="1.0" encoding="UTF-8" standalone="no"?>
<!-- Created with Inkscape (http://www.inkscape.org/) -->

<svg
   xmlns:dc="http://purl.org/dc/elements/1.1/"
   xmlns:cc="http://creativecommons.org/ns#"
   xmlns:rdf="http://www.w3.org/1999/02/22-rdf-syntax-ns#"
   xmlns:svg="http://www.w3.org/2000/svg"
   xmlns="http://www.w3.org/2000/svg"
   xmlns:sodipodi="http://sodipodi.sourceforge.net/DTD/sodipodi-0.dtd"
   xmlns:inkscape="http://www.inkscape.org/namespaces/inkscape"
   width="79.244476mm"
   height="81.663521mm"
   viewBox="0 0 280.78752 289.35893"
   id="svg2"
   version="1.1"
   inkscape:version="0.91 r13725"
   sodipodi:docname="save_pre.svg"
   inkscape:export-filename="/Users/project/Dropbox/Coding/01_Projects/11_React_Drawing/img/save.png"
   inkscape:export-xdpi="91.247498"
   inkscape:export-ydpi="91.247498">
  <defs
     id="defs4" />
  <sodipodi:namedview
     id="base"
     pagecolor="#ffffff"
     bordercolor="#666666"
     borderopacity="1.0"
     inkscape:pageopacity="0.0"
     inkscape:pageshadow="2"
     inkscape:zoom="1.7923149"
     inkscape:cx="166.58078"
     inkscape:cy="132.5847"
     inkscape:document-units="px"
     inkscape:current-layer="layer1"
     showgrid="false"
     inkscape:window-width="1405"
     inkscape:window-height="855"
     inkscape:window-x="0"
     inkscape:window-y="1"
     inkscape:window-maximized="1"
     fit-margin-top="0"
     fit-margin-left="0"
     fit-margin-right="0"
     fit-margin-bottom="0" />
  <metadata
     id="metadata7">
    <rdf:RDF>
      <cc:Work
         rdf:about="">
        <dc:format>image/svg+xml</dc:format>
        <dc:type
           rdf:resource="http://purl.org/dc/dcmitype/StillImage" />
        <dc:title></dc:title>
      </cc:Work>
    </rdf:RDF>
  </metadata>
  <g
     inkscape:groupmode="layer"
     id="layer2"
     inkscape:label="Layer 2"
     transform="translate(-138.0675,-440.0727)" />
  <g
     inkscape:label="Layer 1"
     inkscape:groupmode="layer"
     id="layer1"
     transform="translate(-138.0675,-440.0727)">
    <g
       id="g4723"
       transform="matrix(0.56997431,0,0,0.49489729,63.98333,321.87655)">
      <path
         style="opacity:1;fill:#ecfafe;fill-opacity:1;stroke:#002e71;stroke-width:1.88284624;stroke-linejoin:round;stroke-miterlimit:4;stroke-dasharray:none;stroke-opacity:1"
         d="m 158.57227,374.6442 c -11.08,0 -20.00028,8.92 -20.00027,20 l 2.7e-4,314.28744 c 1e-5,11.08 8.92,20 20,20 l 422.85546,0 c 11.08,0 20,-8.92 20,-20 l 0,-314.28744 c 0,-11.08 -8.92,-20 -20,-20 z"
         id="path4143"
         inkscape:connector-curvature="0"
         sodipodi:nodetypes="sssccssss"
         transform="translate(4.7412109e-6,2.8806671e-6)" />
      <path
         sodipodi:nodetypes="ssssscsssscsssss"
         inkscape:connector-curvature="0"
         id="rect4136"
         d="m 158.57227,374.64453 c -10.0341,0 -18.52977,7.31547 -20.00027,16.92572 -0.15328,1.00172 3.26264,-17.08541 18.7619,-17.11289 8.11781,-0.0144 4.90054,313.90768 4.90054,313.90768 -0.28153,11.07643 6.29684,18.80912 17.36404,19.34147 l 25.46988,1.22513 0,5.19531 c 0,2.77 2.23,10.22951 5,10.22951 l 107.40039,0 c 2.77,0 5,-7.45951 5,-10.22951 l 0,-5.19531 268.95898,0 c 11.08,0 20,-8.92 20,-20 l 0,-294.28711 c 0,-11.08 -8.92,-20 -20,-20 z"
         style="opacity:1;fill:#ecfafe;fill-opacity:1;stroke:#002e71;stroke-width:1.88284624;stroke-linejoin:round;stroke-miterlimit:4;stroke-dasharray:none;stroke-opacity:1" />
    </g>
  </g>
</svg>
